<svg width="673" height="476" viewBox="0 0 673 476" fill="none" xmlns="http://www.w3.org/2000/svg">
<path d="M354.302 76.9067V18.6667C354.302 8.2136 346.088 0 335.635 0C325.182 0 316.968 8.2136 316.968 18.6667V76.9067C316.968 87.3597 325.182 95.5733 335.635 95.5733C346.088 95.5733 354.302 87.3597 354.302 76.9067Z" fill="black"/>
<path d="M234.835 109.013C236.33 109.013 237.819 109.013 239.314 108.269C249.022 105.284 254.997 95.5758 252.751 85.1232L237.819 28.3778C234.835 18.6696 225.127 12.6952 214.674 14.9405C204.966 17.9249 198.991 27.6332 201.237 38.0858L216.169 94.8312C219.158 103.039 226.622 109.014 234.835 109.014L234.835 109.013Z" fill="black"/>
<path d="M140.755 147.84C143.739 147.84 147.473 147.095 149.713 145.6C158.671 140.371 161.661 129.174 156.432 120.215L127.312 69.4444C122.083 60.486 110.885 57.4965 101.927 62.7256C92.9678 67.9547 89.9786 79.1523 95.2077 88.1109L124.328 138.882C128.062 144.106 134.036 147.84 140.754 147.84H140.755Z" fill="black"/>
<path d="M59.3683 209.813C63.8475 209.813 69.0765 208.319 72.8056 204.584C80.2744 197.115 80.2744 185.172 72.8056 178.448L31.7376 137.38C24.2688 129.911 12.3256 129.911 5.6016 137.38C-1.8672 144.849 -1.8672 156.792 5.6016 163.516L46.6696 204.584C50.404 207.574 54.8884 209.813 59.3675 209.813H59.3683Z" fill="black"/>
<path d="M436.435 109.013C444.649 109.013 452.118 103.784 454.356 94.8254L469.288 38.08C472.273 28.3718 466.304 17.9187 455.851 14.9347C446.143 11.9503 435.69 17.9191 432.706 28.372L417.774 85.1174C414.789 94.8256 420.758 105.279 431.211 108.263C433.445 108.268 434.94 109.013 436.435 109.013V109.013Z" fill="black"/>
<path d="M569.342 61.9733C560.383 56.7441 549.18 59.7337 543.956 68.6921L514.831 119.468C509.602 128.427 512.591 139.629 521.55 144.853C524.534 146.348 527.524 147.093 530.508 147.093C537.227 147.093 543.201 144.109 546.935 137.385L576.055 86.6141C581.284 79.1505 578.3 67.2021 569.341 61.9741L569.342 61.9733Z" fill="black"/>
<path d="M639.528 136.64L598.46 177.708C590.992 185.177 590.992 197.12 598.46 203.844C602.195 207.578 606.674 209.073 611.898 209.073C617.127 209.073 621.606 207.578 625.335 203.844L666.403 162.776C673.872 155.307 673.872 143.364 666.403 136.64C658.94 129.176 646.991 129.176 639.528 136.64Z" fill="black"/>
<path d="M638.782 310.613C642.516 304.639 642.516 297.176 638.782 291.201C576.063 188.909 460.328 125.441 335.635 125.441C210.942 125.441 95.2083 188.911 32.4883 290.455C28.7539 296.429 28.7539 303.892 32.4883 309.867C95.207 412.159 210.942 475.627 335.635 475.627C460.328 475.627 576.062 412.157 638.782 310.613ZM335.635 438.296C228.114 438.296 128.062 386.031 70.5683 300.909C128.063 215.789 228.115 162.776 335.635 162.776C443.155 162.776 543.208 215.041 600.702 300.163C543.207 385.283 443.155 438.296 335.635 438.296V438.296Z" fill="black"/>
<path d="M335.635 206.827C284.114 206.827 242.302 248.639 242.302 300.16C242.302 351.681 284.114 393.493 335.635 393.493C387.156 393.493 428.968 351.681 428.968 300.16C428.968 248.639 387.156 206.827 335.635 206.827ZM335.635 356.16C305.02 356.16 279.635 330.775 279.635 300.16C279.635 269.545 305.02 244.16 335.635 244.16C366.25 244.16 391.635 269.545 391.635 300.16C391.635 330.775 366.25 356.16 335.635 356.16Z" fill="black"/>
</svg>
