<svg width="607" height="542" viewBox="0 0 607 542" fill="none" xmlns="http://www.w3.org/2000/svg">
<path d="M403.241 241.294C460.825 241.294 507.512 183.846 507.512 112.966C507.512 42.0858 460.824 0.673828 403.241 0.673828C345.653 0.673828 298.971 42.0858 298.971 112.966C298.971 183.835 345.653 241.294 403.241 241.294V241.294ZM605.695 445.134C595.533 352.019 510.107 311.387 406.175 311.387C405.196 311.387 404.216 311.434 403.232 311.46C402.232 311.429 401.268 311.387 400.274 311.387C296.352 311.387 210.927 352.013 200.754 445.134C200.493 447.54 200.254 467.931 200.045 478.921C421.605 620.801 606.392 478.921 606.392 478.921C606.21 467.931 605.949 447.541 605.689 445.134H605.695ZM237.388 187.774H148.571V98.9618H89.7641V187.785H0.941406V246.587H89.7641V335.41H148.571V246.582H237.393V187.775L237.388 187.774Z" fill="black"/>
</svg>
