<svg width="617" height="303" viewBox="0 0 617 303" fill="none" xmlns="http://www.w3.org/2000/svg">
<path d="M331.373 276.507C331.373 290.747 319.826 302.293 305.581 302.293C291.336 302.293 279.789 290.746 279.789 276.507V242.121C279.789 227.876 291.336 216.329 305.581 216.329C319.826 216.329 331.373 227.876 331.373 242.121V276.507Z" fill="black"/>
<path d="M186.387 265.147C181.517 278.532 166.72 285.433 153.335 280.559C139.949 275.689 133.048 260.892 137.923 247.507L149.683 215.195C154.553 201.809 169.35 194.908 182.735 199.779C196.12 204.654 203.022 219.451 198.151 232.836L186.387 265.147Z" fill="black"/>
<path d="M424.76 265.147C429.635 278.532 444.432 285.433 457.817 280.559C471.203 275.689 478.104 260.892 473.229 247.507L461.469 215.195C456.599 201.809 441.802 194.908 428.417 199.779C415.032 204.654 408.13 219.451 413.001 232.836L424.76 265.147Z" fill="black"/>
<path d="M553.573 207.16C561.745 218.827 577.824 221.66 589.491 213.493C601.157 205.322 603.996 189.243 595.824 177.576L576.1 149.404C567.933 137.737 551.849 134.904 540.183 143.071C528.516 151.243 525.683 167.325 533.849 178.992L553.573 207.16Z" fill="black"/>
<path d="M53.4401 207.16C45.2734 218.827 29.1894 221.66 17.5227 213.493C5.85607 205.322 3.02273 189.243 11.1894 177.576L30.9134 149.404C39.0853 137.737 55.1641 134.904 66.8307 143.071C78.4974 151.243 81.3361 167.325 73.1641 178.992L53.4401 207.16Z" fill="black"/>
<path d="M3.26662 35.2667C49.064 118.204 187.413 197.453 308.667 197.453C429.375 197.453 566.96 118.989 613.48 36.32C619.798 25.0856 615.819 10.8614 604.584 4.53869C593.355 -1.77904 579.125 2.20537 572.808 13.4346C534.652 81.2466 412.701 150.795 308.661 150.795C204.167 150.795 81.5814 80.5759 44.1148 12.7279C37.8856 1.4467 23.6934 -2.65212 12.4121 3.57682C1.13089 9.80602 -2.96791 24.0035 3.26103 35.2848L3.26662 35.2667Z" fill="black"/>
</svg>
