<svg width="472" height="404" viewBox="0 0 472 404" fill="none" xmlns="http://www.w3.org/2000/svg">
<path d="M411.534 209.12L222.627 350.24C218.148 353.975 210.68 350.24 210.68 344.266L210.685 262.136C210.685 258.401 207.7 254.667 203.216 254.667H8.33598C4.60158 254.667 0.867188 251.682 0.867188 247.198V142.667C0.867188 138.933 3.85158 135.199 8.33598 135.199H203.963C207.697 135.199 211.431 132.214 211.431 127.73V60.5325C211.431 54.5585 218.15 50.8242 223.379 54.5585L411.539 197.172C415.274 200.161 415.274 206.135 411.539 209.12L411.534 209.12ZM471.269 299.47V105.336C471.269 47.8417 424.227 0.805664 366.738 0.805664H232.338V30.6697H366.738C407.806 30.6697 441.405 64.2683 441.405 105.336V299.47C441.405 340.538 407.806 374.136 366.738 374.136H232.338V404H366.738C424.233 404 471.269 356.959 471.269 299.47V299.47Z" fill="black"/>
</svg>
