<svg width="471" height="404" viewBox="0 0 471 404" fill="none" xmlns="http://www.w3.org/2000/svg">
<path d="M59.7354 208.315L248.642 349.435C253.121 353.169 260.59 349.435 260.59 343.461L260.585 261.33C260.585 257.596 263.569 253.861 268.054 253.861H462.934C466.668 253.861 470.402 250.877 470.402 246.392V141.862C470.402 138.127 467.418 134.393 462.934 134.393H267.307C263.572 134.393 259.838 131.409 259.838 126.924V59.7268C259.838 53.7528 253.119 50.0185 247.89 53.7528L59.7302 196.366C55.9958 199.356 55.9958 205.33 59.7302 208.314L59.7354 208.315ZM0.000762939 298.664V104.531C0.000762939 47.036 47.0421 0 104.531 0H238.931V29.864H104.531C63.4634 29.864 29.8647 63.4627 29.8647 104.531V298.664C29.8647 339.732 63.4634 373.331 104.531 373.331H238.931V403.195H104.531C47.0367 403.195 0.000762939 356.153 0.000762939 298.664Z" fill="black"/>
</svg>
